<svg width="24" height="24" viewBox="0 0 24 24" fill="none" xmlns="http://www.w3.org/2000/svg">
    <path fill-rule="evenodd" clip-rule="evenodd" d="M1 2.83787C1 1.82284 1.82227 1 2.83787 1H21.1621C22.1772 1 23 1.82227 23 2.83787V21.1621C23 22.1772 22.1777 23 21.1621 23H2.83787C1.82284 23 1 22.1777 1 21.1621V2.83787ZM9.70833 9.3875H12.6875V10.8844C13.117 10.0237 14.2174 9.25 15.8706 9.25C19.0395 9.25 19.7917 10.9633 19.7917 14.107V19.9292H16.5833V14.8229C16.5833 13.0326 16.1539 12.0229 15.0617 12.0229C13.5469 12.0229 12.9167 13.1115 12.9167 14.8229V19.9292H9.70833V9.3875ZM4.20833 19.7917H7.41667V9.25H4.20833V19.7917ZM7.875 5.8125C7.875 6.95146 6.95146 7.875 5.8125 7.875C4.67354 7.875 3.75 6.95146 3.75 5.8125C3.75 4.67354 4.67354 3.75 5.8125 3.75C6.95146 3.75 7.875 4.67354 7.875 5.8125Z" fill="#2E2D25"/>
</svg>
